Coordinates
version=1
nRows=49
nColumns=12
inDegrees=yes

Units are S.I. units (second, meters, Newtons, ...)
Angles are in degrees

endheader
time	SC_y	SC_z	SC_x	AC_y	AC_z	AC_x	GH_y	GH_z	GH_yy	EL_x	PS_y
       0.0              -32.17         0.2749          58.03          50.29         -7.585         -4.142          65.16          53.49         -173.8          74.44          74.63
   0.04953              -32.17         0.2776          58.03          50.29         -7.586         -4.141          65.13          53.49         -173.7          74.43          74.64
   0.09906              -32.16         0.2804          58.03          50.29         -7.588         -4.139          65.09          53.48         -173.7          74.42          74.65
    0.1486              -32.16         0.2834          58.03          50.29         -7.589         -4.138          65.06          53.48         -173.6          74.41          74.65
    0.1981              -32.16         0.2865          58.03          50.29          -7.59         -4.137          65.02          53.48         -173.6           74.4          74.66
    0.2476              -32.15         0.2899          58.03          50.29         -7.592         -4.135          64.98          53.47         -173.6          74.38          74.67
    0.2972              -32.15         0.2936          58.03          50.29         -7.594         -4.134          64.94          53.47         -173.5          74.37          74.68
    0.3467              -32.14         0.2974          58.03          50.29         -7.596         -4.132          64.89          53.47         -173.4          74.36          74.69
    0.3962              -32.14         0.3016          58.02          50.29         -7.598          -4.13          64.84          53.46         -173.4          74.34           74.7
    0.4458              -32.14          0.306          58.02          50.29           -7.6         -4.129          64.79          53.46         -173.3          74.33          74.71
    0.4953              -32.13         0.3108          58.02          50.29         -7.602         -4.127          64.73          53.45         -173.2          74.31          74.72
    0.5448              -32.12          0.316          58.02          50.29         -7.604         -4.124          64.67          53.45         -173.2          74.29          74.73
    0.5943              -32.12         0.3215          58.02          50.29         -7.607         -4.122           64.6          53.44         -173.1          74.27          74.74
    0.6439              -32.11         0.3275          58.01          50.29          -7.61          -4.12          64.53          53.44         -173.0          74.25          74.76
    0.6934               -32.1          0.334          58.01           50.3         -7.613         -4.117          64.46          53.43         -172.9          74.22          74.77
    0.7429               -32.1          0.341          58.01           50.3         -7.616         -4.114          64.37          53.42         -172.8           74.2          74.79
    0.7925              -32.09         0.3486           58.0           50.3          -7.62         -4.111          64.28          53.41         -172.7          74.17          74.81
     0.842              -32.08          0.357           58.0           50.3         -7.623         -4.107          64.18          53.41         -172.6          74.14          74.83
    0.8915              -32.07          0.366           58.0           50.3         -7.628         -4.103          64.08           53.4         -172.4          74.11          74.85
    0.9411              -32.06          0.376          57.99           50.3         -7.632         -4.099          63.96          53.39         -172.3          74.07          74.87
    0.9906              -32.04         0.3869          57.99           50.3         -7.638         -4.095          63.83          53.38         -172.1          74.03           74.9
      1.04              -32.03         0.3989          57.98           50.3         -7.643          -4.09          63.68          53.36         -171.9          73.99          74.92
      1.09              -32.02         0.4122          57.98          50.31         -7.649         -4.084          63.53          53.35         -171.7          73.94          74.95
     1.139               -32.0         0.4269          57.97          50.31         -7.656         -4.078          63.35          53.33         -171.5          73.88          74.99
     1.189              -31.98         0.4433          57.97          50.31         -7.664         -4.071          63.16          53.32         -171.3          73.83          75.03
     1.238              -31.96         0.4615          57.96          50.31         -7.673         -4.063          62.94           53.3         -171.0          73.76          75.07
     1.288              -31.94          0.482          57.95          50.32         -7.682         -4.055           62.7          53.28         -170.7          73.68          75.12
     1.337              -31.91          0.505          57.94          50.32         -7.693         -4.045          62.42          53.25         -170.3           73.6          75.17
     1.387              -31.88          0.531          57.93          50.32         -7.705         -4.034          62.11          53.23         -170.0          73.51          75.23
     1.436              -31.85         0.5605          57.92          50.33         -7.719         -4.022          61.76           53.2         -169.5           73.4           75.3
     1.486              -31.81         0.5942          57.91          50.33         -7.735         -4.007          61.36          53.16         -169.0          73.28          75.38
     1.535              -31.77         0.6328          57.89          50.34         -7.753         -3.991           60.9          53.12         -168.4          73.13          75.47
     1.585              -31.72         0.6775          57.87          50.34         -7.774         -3.972          60.37          53.08         -167.8          72.97          75.57
     1.634              -31.66         0.7293          57.85          50.35         -7.798         -3.951          59.75          53.03         -167.0          72.78          75.69
     1.684              -31.59           0.79          57.83          50.36         -7.826         -3.925          59.03          52.97         -166.1          72.56          75.84
     1.734              -31.51         0.8615           57.8          50.37          -7.86         -3.895          58.18          52.89         -165.0           72.3           76.0
     1.783              -31.42         0.9465          57.76          50.38           -7.9         -3.859          57.17          52.81         -163.8          71.99           76.2
     1.833               -31.3          1.048          57.72          50.39         -7.948         -3.817          55.96           52.7         -162.3          71.62          76.44
     1.882              -31.17          1.172          57.67          50.41         -8.005         -3.765          54.49          52.58         -160.4          71.17          76.73
     1.932               -31.0          1.322          57.61          50.43         -8.076         -3.701           52.7          52.42         -158.2          70.62          77.08
     1.981              -30.79          1.508          57.54          50.46         -8.163         -3.623          50.49          52.23         -155.4          69.95          77.51
     2.031              -30.53           1.74          57.44          50.49         -8.272         -3.526          47.73           52.0         -152.0           69.1          78.05
      2.08               -30.2          2.032          57.32          50.53         -8.409         -3.403          44.26           51.7         -147.6          68.04          78.73
      2.13              -29.79          2.403          57.17          50.58         -8.583         -3.247          39.85          51.32         -142.1          66.69           79.6
     2.179              -29.26          2.878          56.98          50.64         -8.805         -3.048           34.2          50.84         -135.0          64.96          80.71
     2.229              -28.57          3.487          56.74          50.73         -9.091         -2.791          26.95          50.22         -125.9          62.74          82.13
     2.278               -27.7          4.266          56.42          50.83         -9.456         -2.464          17.68          49.43         -114.3           59.9          83.95
     2.328              -26.61          5.245          56.03          50.97         -9.915         -2.053          6.039          48.43         -99.74          56.33          86.23
     2.377              -25.27          6.438          55.54          51.13         -10.47         -1.551         -8.153          47.22         -81.96          51.99          89.02
